<svg id="图层_1" data-name="图层 1" xmlns="http://www.w3.org/2000/svg" xmlns:xlink="http://www.w3.org/1999/xlink" viewBox="0 0 1440 900"><defs><style>.cls-1{fill:none;}.cls-2{clip-path:url(#clip-path);}.cls-3{fill:url(#未命名的渐变_729);}.cls-4{clip-path:url(#clip-path-2);}.cls-13,.cls-14,.cls-16,.cls-5,.cls-6,.cls-7,.cls-8{opacity:0.05;}.cls-5{fill:url(#未命名的渐变_720);}.cls-6{fill:url(#未命名的渐变_720-2);}.cls-7{fill:url(#未命名的渐变_720-3);}.cls-8{fill:url(#未命名的渐变_720-4);}.cls-10,.cls-9{opacity:0.07;}.cls-9{fill:url(#未命名的渐变_720-5);}.cls-10{fill:url(#未命名的渐变_720-6);}.cls-11{clip-path:url(#clip-path-3);}.cls-12{clip-path:url(#clip-path-4);}.cls-13{fill:url(#未命名的渐变_720-7);}.cls-14{fill:url(#未命名的渐变_720-8);}.cls-15{clip-path:url(#clip-path-5);}.cls-16{fill:url(#linear-gradient);}</style><clipPath id="clip-path"><rect class="cls-1" width="1440" height="900"/></clipPath><radialGradient id="未命名的渐变_729" cx="719.72" cy="450" r="778.85" gradientUnits="userSpaceOnUse"><stop offset="0" stop-color="#062d8e"/><stop offset="1" stop-color="#151f4f"/></radialGradient><clipPath id="clip-path-2"><rect class="cls-1" x="-239.72" y="-90" width="1920" height="1080"/></clipPath><linearGradient id="未命名的渐变_720" x1="1058.89" y1="265.82" x2="1110.74" y2="159.95" gradientUnits="userSpaceOnUse"><stop offset="0" stop-color="#2ab3ff"/><stop offset="0.43" stop-color="#33a1fa"/><stop offset="1" stop-color="#3c8cf4"/></linearGradient><linearGradient id="未命名的渐变_720-2" x1="1291.53" y1="142.87" x2="1409.03" y2="-42.17" xlink:href="#未命名的渐变_720"/><linearGradient id="未命名的渐变_720-3" x1="-141.56" y1="934.38" x2="-25.11" y2="750.99" xlink:href="#未命名的渐变_720"/><linearGradient id="未命名的渐变_720-4" x1="157.81" y1="932.03" x2="275.3" y2="746.99" xlink:href="#未命名的渐变_720"/><linearGradient id="未命名的渐变_720-5" x1="546.21" y1="551.97" x2="675.6" y2="348.2" xlink:href="#未命名的渐变_720"/><linearGradient id="未命名的渐变_720-6" x1="1154.83" y1="335.12" x2="859.62" y2="411.21" xlink:href="#未命名的渐变_720"/><clipPath id="clip-path-3"><rect class="cls-1" x="208.47" y="1118.16" width="1440" height="900"/></clipPath><clipPath id="clip-path-4"><rect class="cls-1" x="-31.25" y="1028.16" width="1920" height="1080"/></clipPath><linearGradient id="未命名的渐变_720-7" x1="1267.36" y1="1383.98" x2="1319.21" y2="1278.11" xlink:href="#未命名的渐变_720"/><linearGradient id="未命名的渐变_720-8" x1="1500" y1="1261.03" x2="1617.5" y2="1075.99" xlink:href="#未命名的渐变_720"/><clipPath id="clip-path-5"><rect class="cls-1" x="354.51" y="1301.27" width="1147.92" height="533.78" rx="2"/></clipPath><linearGradient id="linear-gradient" x1="4003.88" y1="1156.4" x2="5774.35" y2="921.05" gradientTransform="matrix(-1, 0, 0, 1, 5462.56, 0)" gradientUnits="userSpaceOnUse"><stop offset="0" stop-color="#fff"/><stop offset="1" stop-color="#e4ffff"/></linearGradient></defs><g class="cls-2"><rect class="cls-3" x="-240.28" y="-90" width="1920" height="1080"/><g class="cls-4"><polygon class="cls-5" points="706.57 -263.3 578.38 -263.3 419.02 -160.55 1736.49 615.17 1762.94 315.51 706.57 -263.3"/><polygon class="cls-6" points="998.44 -311.4 662.73 -311.4 662.73 -207.36 1799.22 462.49 2095.3 321.59 998.44 -311.4"/><polygon class="cls-7" points="-520.97 456.73 -649.16 456.73 -808.52 559.47 508.95 1335.2 535.4 1035.54 -520.97 456.73"/><polygon class="cls-8" points="-135.28 477.77 -470.99 477.77 -470.99 581.8 665.49 1251.65 961.57 1110.75 -135.28 477.77"/></g><polygon class="cls-9" points="-112.08 -90 -240.28 -90 -240.28 106.58 1266.4 972.95 1562.48 832.05 -112.08 -90"/><polygon class="cls-10" points="95.43 -90 -240.28 -90 -240.28 14.04 1514.4 1027.13 1810.48 886.23 95.43 -90"/></g><g class="cls-11"><g class="cls-12"><polygon class="cls-13" points="915.04 854.86 786.85 854.86 627.49 957.61 1944.96 1733.33 1971.41 1433.67 915.04 854.86"/><polygon class="cls-14" points="1206.91 806.76 871.2 806.76 871.2 910.8 2007.69 1580.65 2303.77 1439.75 1206.91 806.76"/></g></g><g class="cls-15"><path class="cls-16" d="M401.11,937.17c2.45,9.88,9.84,19.07,22.34,26.3l727.66,421.06V895.65l-109.75-63.51-.48-.28H528.43l-.5.28L433.1,885.69c-18.15,10.5-28.92,23.46-32,36.35A31.6,31.6,0,0,0,401.11,937.17Z"/></g></svg>