<?xml version="1.0" encoding="UTF-8"?>
<svg width="11px" height="13px" viewBox="0 0 11 13" version="1.1" xmlns="http://www.w3.org/2000/svg" xmlns:xlink="http://www.w3.org/1999/xlink">
    <!-- Generator: Sketch 48.2 (47327) - http://www.bohemiancoding.com/sketch -->
    <title>Combined Shape</title>
    <desc>Created with Sketch.</desc>
    <defs></defs>
    <g id="Page-1" stroke="none" stroke-width="1" fill="none" fill-rule="evenodd">
        <path d="M9.35,11.62 L1.65,11.62 L1.65,5.9 L9.35,5.9 L9.35,11.62 Z M3.92,2.94 C3.92,2.0673901 4.6273901,1.36 5.5,1.36 C6.3726099,1.36 7.08,2.0673901 7.08,2.94 L7.08,4.94 L3.92,4.94 L3.92,2.94 Z M9.85,4.94 L8.08,4.94 L8.08,2.94 C8.08,1.51510535 6.92489465,0.36 5.5,0.36 C4.07510535,0.36 2.92,1.51510535 2.92,2.94 L2.92,4.94 L1.15,4.94 C1.01926746,4.93454803 0.891975314,4.98270209 0.797584541,5.07331723 C0.703193769,5.16393237 0.649886367,5.28915387 0.65,5.42 L0.65,12.08 C0.649886367,12.2108461 0.703193769,12.3360676 0.797584541,12.4266828 C0.891975314,12.5172979 1.01926746,12.565452 1.15,12.56 L9.85,12.56 C9.98073254,12.565452 10.1080247,12.5172979 10.2024155,12.4266828 C10.2968062,12.3360676 10.3501136,12.2108461 10.35,12.08 L10.35,5.42 C10.3501136,5.28915387 10.2968062,5.16393237 10.2024155,5.07331723 C10.1080247,4.98270209 9.98073254,4.93454803 9.85,4.94 Z M5.43,10.18 C5.70228381,10.1800545 5.92455433,9.96222935 5.93,9.69 L5.93,7.86 C5.92455433,7.58777065 5.70228381,7.36994554 5.43,7.37 C5.29832003,7.36731209 5.1711021,7.41774789 5.07703498,7.50993366 C4.98296787,7.60211943 4.92997257,7.72829261 4.93,7.86 L4.93,9.69 C4.92997257,9.82170739 4.98296787,9.94788057 5.07703498,10.0400663 C5.1711021,10.1322521 5.29832003,10.1826879 5.43,10.18 Z" id="Combined-Shape" fill="#C6DEE9" fill-rule="nonzero"></path>
    </g>
</svg>