<?xml version="1.0" encoding="UTF-8"?>
<svg width="9px" height="13px" viewBox="0 0 9 13" version="1.1" xmlns="http://www.w3.org/2000/svg" xmlns:xlink="http://www.w3.org/1999/xlink">
    <!-- Generator: Sketch 48.2 (47327) - http://www.bohemiancoding.com/sketch -->
    <title>Combined Shape</title>
    <desc>Created with Sketch.</desc>
    <defs></defs>
    <g id="Page-1" stroke="none" stroke-width="1" fill="none" fill-rule="evenodd">
        <path d="M7.55,0.41 L1.4,0.41 C0.92,0.41 0.5,0.73 0.5,1.1 L0.5,11.9 C0.5,12.27 0.87,12.59 1.4,12.59 L7.6,12.59 C8.08,12.59 8.5,12.27 8.5,11.9 L8.5,1.1 C8.40147281,0.664112662 7.99498788,0.368876243 7.55,0.41 Z M7.65,11.41 C7.66232056,11.5256016 7.62242585,11.6406727 7.54119299,11.7238397 C7.45996012,11.8070066 7.34585946,11.8495975 7.23,11.84 L1.72,11.84 C1.60513036,11.8427692 1.49414186,11.7983555 1.41289316,11.7171068 C1.33164447,11.6358581 1.28723084,11.5248696 1.29,11.41 L1.29,1.63 C1.28723084,1.51513036 1.33164447,1.40414186 1.41289316,1.32289316 C1.49414186,1.24164447 1.60513036,1.19723084 1.72,1.2 L7.28,1.2 C7.49858958,1.22111157 7.66172964,1.41070677 7.65,1.63 L7.65,11.41 Z M3.68,10.63 C3.67732576,10.8412483 3.75937559,11.0447665 3.90782017,11.1950901 C4.05626475,11.3454137 4.2587348,11.4300169 4.47,11.43 C4.9118278,11.43 5.27,11.0718278 5.27,10.63 C5.27001693,10.4187348 5.18541371,10.2162647 5.03509008,10.0678202 C4.88476646,9.91937559 4.68124828,9.83732576 4.47,9.84 C4.03369505,9.84 3.68,10.193695 3.68,10.63 Z M5.27,2 L3.68,2 C3.56688669,1.99730606 3.4574709,2.04036379 3.37652938,2.11942294 C3.29558787,2.19848209 3.24996792,2.30685462 3.25,2.42 C3.25,2.69 3.47,2.79 3.68,2.79 L5.27,2.79 C5.50195959,2.79 5.69,2.60195959 5.69,2.37 C5.6909862,2.2625591 5.64521953,2.15999581 5.56459689,2.0889711 C5.48397424,2.01794639 5.37645923,1.98547582 5.27,2 Z" id="Combined-Shape" fill="#C6DEE9" fill-rule="nonzero"></path>
    </g>
</svg>