<?xml version="1.0" encoding="UTF-8"?>
<svg width="10px" height="13px" viewBox="0 0 10 13" version="1.1" xmlns="http://www.w3.org/2000/svg" xmlns:xlink="http://www.w3.org/1999/xlink">
    <!-- Generator: Sketch 48.2 (47327) - http://www.bohemiancoding.com/sketch -->
    <title>Combined Shape</title>
    <desc>Created with Sketch.</desc>
    <defs></defs>
    <g id="Page-1" stroke="none" stroke-width="1" fill="none" fill-rule="evenodd">
        <path d="M8.4,1.36141449 C8.02180659,1.35331622 7.64723606,1.28582603 7.29,1.16141449 C6.71487058,0.95827597 6.17753741,0.660884028 5.7,0.281414486 C5.21399524,-0.0938048288 4.53600476,-0.0938048288 4.05,0.281414486 C3.56472262,0.668320111 3.0168154,0.969330865 2.43,1.17141449 C2.06933273,1.29589519 1.6914599,1.36337248 1.31,1.37141449 C0.582347451,1.39816826 0.00486233654,1.99328651 0,2.72141449 L0,8.55141449 C0.00259325374,9.00096921 0.22717905,9.42019603 0.6,9.67141449 L4.11,12.0114145 C4.5648015,12.3120754 5.1551985,12.3120754 5.61,12.0114145 L9.12,9.67141449 C9.49282095,9.42019603 9.71740675,9.00096921 9.72,8.55141449 L9.72,2.71141449 C9.72018126,1.97739039 9.13384286,1.37772611 8.4,1.36141449 Z M8.91,8.36141449 C8.9104805,8.58663959 8.79776778,8.79703667 8.61,8.92141449 L5.23,11.1714145 C5.00653047,11.3227018 4.71346953,11.3227018 4.49,11.1714145 L1.11,8.92141449 C0.922232221,8.79703667 0.8095195,8.58663959 0.81,8.36141449 L0.81,2.81141449 C0.809980012,2.63197318 0.881940155,2.46002289 1.0097607,2.33408206 C1.13758124,2.20814123 1.31057868,2.13873626 1.49,2.14141449 L1.55,2.14141449 C1.98649641,2.18108238 2.42642098,2.12651809 2.84,1.98141449 C3.42854738,1.77330274 3.97169911,1.45420111 4.44,1.04141449 C4.69056159,0.82752537 5.05943841,0.82752537 5.31,1.04141449 C5.76638108,1.45500426 6.29991131,1.77444275 6.88,1.98141449 C7.29313898,2.12838482 7.73347425,2.18300005 8.17,2.14141449 C8.54075182,2.11208966 8.86803795,2.38187958 8.91,2.75141449 L8.91,8.37141449 L8.91,8.36141449 Z M6.46,4.13141449 L4.64,6.30141449 L3.71,5.52141449 C3.53785413,5.3808308 3.28504142,5.40300736 3.14,5.57141449 C3.06104478,5.64516797 3.01622359,5.7483705 3.01622359,5.85641449 C3.01622359,5.96445847 3.06104478,6.06766101 3.14,6.14141449 L4.38,7.14141449 C4.45691767,7.21632567 4.56325772,7.25299466 4.67,7.24141449 C4.77969729,7.23106953 4.88061393,7.17700705 4.95,7.09141449 L7.08,4.61141449 C7.22359403,4.44020621 7.20120826,4.18500853 7.02999999,4.0414145 C6.85879172,3.89782047 6.60359404,3.92020622 6.46,4.09141449 L6.46,4.13141449 Z" id="Combined-Shape" fill="#C6DEE9" fill-rule="nonzero"></path>
    </g>
</svg>