<?xml version="1.0" encoding="UTF-8"?>
<svg width="10px" height="12px" viewBox="0 0 10 12" version="1.1" xmlns="http://www.w3.org/2000/svg" xmlns:xlink="http://www.w3.org/1999/xlink">
    <!-- Generator: Sketch 48.2 (47327) - http://www.bohemiancoding.com/sketch -->
    <title>Combined Shape</title>
    <desc>Created with Sketch.</desc>
    <defs></defs>
    <g id="Page-1" stroke="none" stroke-width="1" fill="none" fill-rule="evenodd">
        <path d="M7.75,7.06120377 C8.98173651,5.92467379 9.39085079,4.14929436 8.78071889,2.58832854 C8.17058699,1.02736271 6.66596994,0 4.99,0 C3.31403006,0 1.80941301,1.02736271 1.19928111,2.58832854 C0.589149214,4.14929436 0.998263488,5.92467379 2.23,7.06120377 C0.974171893,7.86995397 0.153758729,9.20542473 0,10.6912038 C-4.70397329e-05,11.007664 0.253586833,11.2657476 0.57,11.2712038 C0.886460204,11.2712508 1.14454379,11.0176169 1.15,10.7012038 C1.33413396,9.43132107 2.12512214,8.33065357 3.27,7.75120377 C4.35253066,8.26312191 5.60746934,8.26312191 6.69,7.75120377 C7.83487786,8.33065357 8.62586604,9.43132107 8.81,10.7012038 C8.81545621,11.0176169 9.0735398,11.2712508 9.39,11.2712038 C9.70641317,11.2657476 9.96004704,11.007664 9.96,10.6912038 C9.81085846,9.20903158 8.99821765,7.87424147 7.75,7.06120377 Z M4.99,6.99120377 C3.38285138,6.99120377 2.08,5.68835239 2.08,4.08120377 C2.08,2.47405515 3.38285138,1.17120377 4.99,1.17120377 C6.59714862,1.17120377 7.9,2.47405515 7.9,4.08120377 C7.9,5.68835239 6.59714862,6.99120377 4.99,6.99120377 Z M6.55,4.68120377 C6.50044735,4.67174489 6.44955265,4.67174489 6.4,4.68120377 C6.29673553,4.67615682 6.19965602,4.73052134 6.15,4.82120377 C5.91050841,5.23533883 5.4683974,5.49038338 4.99,5.49038338 C4.5116026,5.49038338 4.06949159,5.23533883 3.83,4.82120377 C3.78517611,4.72478972 3.68616482,4.66538295 3.58,4.67120377 C3.41983742,4.67120377 3.29,4.80104119 3.29,4.96120377 C3.27545203,5.00673663 3.27545203,5.05567091 3.29,5.10120377 C3.63369116,5.69255876 4.26602315,6.056424 4.95,6.056424 C5.63397685,6.056424 6.26630884,5.69255876 6.61,5.10120377 C6.62364211,5.05213431 6.62364211,5.00027324 6.61,4.95120377 C6.63697126,4.85684904 6.61439479,4.75525493 6.55,4.68120377 Z" id="Combined-Shape" fill="#C6DEE9" fill-rule="nonzero"></path>
    </g>
</svg>